<mxfile host="app.diagrams.net" modified="2023-04-02T08:02:51.183Z" agent="Mozilla/5.0 (Windows NT 10.0; Win64; x64; rv:109.0) Gecko/20100101 Firefox/111.0" etag="oCUeRZI1xSLxkIrwkiBH" version="21.1.2" type="device">
  <diagram name="Page-1" id="7-jFlq0Z8aK6_RS3DWu9">
    <mxGraphModel dx="4140" dy="2422" grid="1" gridSize="10" guides="1" tooltips="1" connect="1" arrows="1" fold="1" page="1" pageScale="1" pageWidth="850" pageHeight="1100" math="0" shadow="0">
      <root>
        <mxCell id="0" />
        <mxCell id="1" parent="0" />
        <mxCell id="EfOndb0SQZfeAL7E1h73-46" value="" style="rounded=1;whiteSpace=wrap;html=1;fillColor=#d5e8d4;strokeColor=#82b366;fontFamily=Lucida Console;" vertex="1" parent="1">
          <mxGeometry x="-740" y="-387.5" width="400" height="490" as="geometry" />
        </mxCell>
        <mxCell id="74BELCQ8GyMcvEUJpIyk-5" value="" style="rounded=1;whiteSpace=wrap;html=1;fontSize=30;fillColor=#60a917;fontColor=#ffffff;strokeColor=#2D7600;fontFamily=Lucida Console;" parent="1" vertex="1">
          <mxGeometry x="-160" y="-520" width="1200" height="755" as="geometry" />
        </mxCell>
        <mxCell id="EfOndb0SQZfeAL7E1h73-3" value="" style="rounded=0;whiteSpace=wrap;html=1;fillColor=#d5e8d4;strokeColor=#82b366;fontFamily=Lucida Console;" vertex="1" parent="1">
          <mxGeometry y="20" width="880" height="190" as="geometry" />
        </mxCell>
        <mxCell id="74BELCQ8GyMcvEUJpIyk-30" value="" style="rounded=1;whiteSpace=wrap;html=1;fontSize=10;fillColor=#fff2cc;strokeColor=#d6b656;fontFamily=Lucida Console;" parent="1" vertex="1">
          <mxGeometry x="100" y="40" width="200" height="60" as="geometry" />
        </mxCell>
        <mxCell id="74BELCQ8GyMcvEUJpIyk-28" value="" style="rounded=1;whiteSpace=wrap;html=1;fontSize=10;fillColor=#dae8fc;strokeColor=#6c8ebf;fontFamily=Lucida Console;" parent="1" vertex="1">
          <mxGeometry y="280" width="880" height="600" as="geometry" />
        </mxCell>
        <mxCell id="74BELCQ8GyMcvEUJpIyk-2" value="&lt;font style=&quot;font-size: 30px;&quot;&gt;El Picoteo .sl&lt;/font&gt;" style="text;html=1;strokeColor=none;fillColor=none;align=center;verticalAlign=middle;whiteSpace=wrap;rounded=0;fontFamily=Lucida Console;" parent="1" vertex="1">
          <mxGeometry x="-1260" y="-650" width="240" height="30" as="geometry" />
        </mxCell>
        <mxCell id="74BELCQ8GyMcvEUJpIyk-4" value="Entrada/Gestion Inventario" style="text;html=1;strokeColor=none;fillColor=none;align=center;verticalAlign=middle;whiteSpace=wrap;rounded=0;fontFamily=Lucida Console;" parent="1" vertex="1">
          <mxGeometry x="125" y="60" width="150" height="20" as="geometry" />
        </mxCell>
        <mxCell id="74BELCQ8GyMcvEUJpIyk-7" value="Middleware" style="text;html=1;strokeColor=none;fillColor=none;align=center;verticalAlign=middle;whiteSpace=wrap;rounded=0;fontFamily=Lucida Console;" parent="1" vertex="1">
          <mxGeometry x="290" y="16.25" width="240" height="30" as="geometry" />
        </mxCell>
        <mxCell id="74BELCQ8GyMcvEUJpIyk-11" value="Bases de datos" style="text;html=1;strokeColor=none;fillColor=none;align=center;verticalAlign=middle;whiteSpace=wrap;rounded=0;fontFamily=Lucida Console;" parent="1" vertex="1">
          <mxGeometry x="320" y="290" width="240" height="30" as="geometry" />
        </mxCell>
        <mxCell id="74BELCQ8GyMcvEUJpIyk-6" value="" style="shape=datastore;whiteSpace=wrap;html=1;fontSize=30;fillColor=#ffe6cc;strokeColor=#d79b00;fontFamily=Lucida Console;" parent="1" vertex="1">
          <mxGeometry x="330" y="320" width="60" height="60" as="geometry" />
        </mxCell>
        <mxCell id="74BELCQ8GyMcvEUJpIyk-8" value="" style="shape=datastore;whiteSpace=wrap;html=1;fontSize=30;fillColor=#ffe6cc;strokeColor=#d79b00;fontFamily=Lucida Console;" parent="1" vertex="1">
          <mxGeometry x="170" y="320" width="60" height="60" as="geometry" />
        </mxCell>
        <mxCell id="74BELCQ8GyMcvEUJpIyk-9" value="" style="shape=datastore;whiteSpace=wrap;html=1;fontSize=30;fillColor=#ffe6cc;strokeColor=#d79b00;fontFamily=Lucida Console;" parent="1" vertex="1">
          <mxGeometry x="650" y="320" width="60" height="60" as="geometry" />
        </mxCell>
        <mxCell id="74BELCQ8GyMcvEUJpIyk-27" value="" style="edgeStyle=orthogonalEdgeStyle;rounded=0;orthogonalLoop=1;jettySize=auto;html=1;fontSize=10;fontFamily=Lucida Console;" parent="1" source="74BELCQ8GyMcvEUJpIyk-12" target="74BELCQ8GyMcvEUJpIyk-17" edge="1">
          <mxGeometry relative="1" as="geometry" />
        </mxCell>
        <mxCell id="74BELCQ8GyMcvEUJpIyk-12" value="Inventario" style="text;html=1;strokeColor=none;fillColor=none;align=center;verticalAlign=middle;whiteSpace=wrap;rounded=0;fontFamily=Lucida Console;" parent="1" vertex="1">
          <mxGeometry x="140" y="380" width="120" height="30" as="geometry" />
        </mxCell>
        <mxCell id="74BELCQ8GyMcvEUJpIyk-22" value="" style="edgeStyle=orthogonalEdgeStyle;rounded=0;orthogonalLoop=1;jettySize=auto;html=1;fontSize=10;fontFamily=Lucida Console;" parent="1" source="74BELCQ8GyMcvEUJpIyk-13" target="74BELCQ8GyMcvEUJpIyk-20" edge="1">
          <mxGeometry relative="1" as="geometry" />
        </mxCell>
        <mxCell id="74BELCQ8GyMcvEUJpIyk-13" value="&lt;div&gt;Economia&lt;/div&gt;" style="text;html=1;strokeColor=none;fillColor=none;align=center;verticalAlign=middle;whiteSpace=wrap;rounded=0;fontFamily=Lucida Console;" parent="1" vertex="1">
          <mxGeometry x="300" y="380" width="120" height="30" as="geometry" />
        </mxCell>
        <mxCell id="74BELCQ8GyMcvEUJpIyk-26" value="" style="edgeStyle=orthogonalEdgeStyle;rounded=0;orthogonalLoop=1;jettySize=auto;html=1;fontSize=10;fontFamily=Lucida Console;" parent="1" source="74BELCQ8GyMcvEUJpIyk-14" target="74BELCQ8GyMcvEUJpIyk-25" edge="1">
          <mxGeometry relative="1" as="geometry" />
        </mxCell>
        <mxCell id="74BELCQ8GyMcvEUJpIyk-14" value="Social" style="text;html=1;strokeColor=none;fillColor=none;align=center;verticalAlign=middle;whiteSpace=wrap;rounded=0;fontFamily=Lucida Console;" parent="1" vertex="1">
          <mxGeometry x="620" y="380" width="120" height="30" as="geometry" />
        </mxCell>
        <mxCell id="74BELCQ8GyMcvEUJpIyk-15" value="" style="shape=datastore;whiteSpace=wrap;html=1;fontSize=30;fillColor=#ffe6cc;strokeColor=#d79b00;fontFamily=Lucida Console;" parent="1" vertex="1">
          <mxGeometry x="490" y="320" width="60" height="60" as="geometry" />
        </mxCell>
        <mxCell id="74BELCQ8GyMcvEUJpIyk-24" value="" style="edgeStyle=orthogonalEdgeStyle;rounded=0;orthogonalLoop=1;jettySize=auto;html=1;fontSize=10;fontFamily=Lucida Console;" parent="1" source="74BELCQ8GyMcvEUJpIyk-16" target="74BELCQ8GyMcvEUJpIyk-23" edge="1">
          <mxGeometry relative="1" as="geometry" />
        </mxCell>
        <mxCell id="74BELCQ8GyMcvEUJpIyk-16" value="&lt;div&gt;Ofertas&lt;/div&gt;" style="text;html=1;strokeColor=none;fillColor=none;align=center;verticalAlign=middle;whiteSpace=wrap;rounded=0;fontFamily=Lucida Console;" parent="1" vertex="1">
          <mxGeometry x="460" y="380" width="120" height="30" as="geometry" />
        </mxCell>
        <mxCell id="EfOndb0SQZfeAL7E1h73-67" style="edgeStyle=orthogonalEdgeStyle;rounded=0;orthogonalLoop=1;jettySize=auto;html=1;entryX=1;entryY=0.5;entryDx=0;entryDy=0;fontFamily=Lucida Console;" edge="1" parent="1" source="74BELCQ8GyMcvEUJpIyk-17" target="EfOndb0SQZfeAL7E1h73-56">
          <mxGeometry relative="1" as="geometry" />
        </mxCell>
        <mxCell id="74BELCQ8GyMcvEUJpIyk-17" value="&lt;div&gt;&lt;font style=&quot;font-size: 10px;&quot;&gt;verduras&lt;br&gt;&lt;/font&gt;&lt;/div&gt;&lt;div&gt;&lt;font style=&quot;font-size: 10px;&quot;&gt;frutas&lt;/font&gt;&lt;/div&gt;&lt;div&gt;&lt;font style=&quot;font-size: 10px;&quot;&gt;huevos&lt;/font&gt;&lt;/div&gt;&lt;div&gt;&lt;font style=&quot;font-size: 10px;&quot;&gt;carnes&lt;/font&gt;&lt;/div&gt;&lt;div&gt;&lt;font style=&quot;font-size: 10px;&quot;&gt;pescados&lt;/font&gt;&lt;/div&gt;&lt;div&gt;&lt;font style=&quot;font-size: 10px;&quot;&gt;mariscos&lt;/font&gt;&lt;/div&gt;&lt;div&gt;&lt;font style=&quot;font-size: 10px;&quot;&gt;aceites&lt;/font&gt;&lt;/div&gt;&lt;div&gt;&lt;font style=&quot;font-size: 10px;&quot;&gt;lacteos&lt;/font&gt;&lt;/div&gt;&lt;div&gt;&lt;font style=&quot;font-size: 10px;&quot;&gt;infusiones&lt;/font&gt;&lt;/div&gt;&lt;div&gt;&lt;font style=&quot;font-size: 10px;&quot;&gt;bebidas&lt;/font&gt;&lt;/div&gt;&lt;div&gt;&lt;font style=&quot;font-size: 10px;&quot;&gt;edulcorantes&lt;br&gt;&lt;/font&gt;&lt;/div&gt;" style="rounded=0;whiteSpace=wrap;html=1;fontSize=30;fillColor=#f5f5f5;strokeColor=#666666;fontColor=#333333;fontFamily=Lucida Console;" parent="1" vertex="1">
          <mxGeometry x="160" y="440" width="80" height="400" as="geometry" />
        </mxCell>
        <mxCell id="74BELCQ8GyMcvEUJpIyk-19" value="&lt;font style=&quot;font-size: 10px;&quot;&gt;Mensual&lt;/font&gt;" style="rounded=0;whiteSpace=wrap;html=1;fontSize=30;fillColor=#f5f5f5;strokeColor=#666666;fontColor=#333333;fontFamily=Lucida Console;" parent="1" vertex="1">
          <mxGeometry x="320" y="440" width="80" height="40" as="geometry" />
        </mxCell>
        <mxCell id="EfOndb0SQZfeAL7E1h73-68" style="edgeStyle=orthogonalEdgeStyle;rounded=0;orthogonalLoop=1;jettySize=auto;html=1;entryX=0.49;entryY=0;entryDx=0;entryDy=0;entryPerimeter=0;fontFamily=Lucida Console;" edge="1" parent="1" source="74BELCQ8GyMcvEUJpIyk-20" target="EfOndb0SQZfeAL7E1h73-62">
          <mxGeometry relative="1" as="geometry">
            <Array as="points">
              <mxPoint x="360" y="920" />
              <mxPoint y="920" />
            </Array>
          </mxGeometry>
        </mxCell>
        <mxCell id="74BELCQ8GyMcvEUJpIyk-20" value="&lt;div style=&quot;font-size: 10px;&quot;&gt;&lt;font style=&quot;font-size: 10px;&quot;&gt;Id&lt;/font&gt;&lt;/div&gt;&lt;div style=&quot;font-size: 10px;&quot;&gt;&lt;font style=&quot;font-size: 10px;&quot;&gt;Fecha&lt;/font&gt;&lt;/div&gt;&lt;div style=&quot;font-size: 10px;&quot;&gt;&lt;font style=&quot;font-size: 10px;&quot;&gt;Ganancia mensual total&lt;font style=&quot;font-size: 10px;&quot;&gt;&lt;br&gt;&lt;/font&gt;&lt;/font&gt;&lt;/div&gt;" style="rounded=0;whiteSpace=wrap;html=1;fontSize=30;fillColor=#f5f5f5;strokeColor=#666666;fontColor=#333333;fontFamily=Lucida Console;" parent="1" vertex="1">
          <mxGeometry x="290" y="520" width="140" height="80" as="geometry" />
        </mxCell>
        <mxCell id="EfOndb0SQZfeAL7E1h73-69" style="edgeStyle=orthogonalEdgeStyle;rounded=0;orthogonalLoop=1;jettySize=auto;html=1;entryX=0.5;entryY=0;entryDx=0;entryDy=0;fontFamily=Lucida Console;" edge="1" parent="1" source="74BELCQ8GyMcvEUJpIyk-23" target="EfOndb0SQZfeAL7E1h73-64">
          <mxGeometry relative="1" as="geometry" />
        </mxCell>
        <mxCell id="74BELCQ8GyMcvEUJpIyk-23" value="&lt;div style=&quot;font-size: 10px;&quot;&gt;Menu del dia&lt;/div&gt;&lt;div style=&quot;font-size: 10px;&quot;&gt;Bocadillos&lt;/div&gt;&lt;div style=&quot;font-size: 10px;&quot;&gt;Aperitivos&lt;/div&gt;" style="rounded=0;whiteSpace=wrap;html=1;fontSize=30;fillColor=#f5f5f5;strokeColor=#666666;fontColor=#333333;fontFamily=Lucida Console;" parent="1" vertex="1">
          <mxGeometry x="450" y="440" width="140" height="80" as="geometry" />
        </mxCell>
        <mxCell id="EfOndb0SQZfeAL7E1h73-72" style="edgeStyle=orthogonalEdgeStyle;rounded=0;orthogonalLoop=1;jettySize=auto;html=1;fontFamily=Lucida Console;" edge="1" parent="1" source="74BELCQ8GyMcvEUJpIyk-25" target="EfOndb0SQZfeAL7E1h73-70">
          <mxGeometry relative="1" as="geometry" />
        </mxCell>
        <mxCell id="74BELCQ8GyMcvEUJpIyk-25" value="&lt;div style=&quot;font-size: 10px;&quot;&gt;&lt;font style=&quot;font-size: 10px;&quot;&gt;Id&lt;/font&gt;&lt;/div&gt;&lt;div style=&quot;font-size: 10px;&quot;&gt;&lt;font style=&quot;font-size: 10px;&quot;&gt;Fecha&lt;/font&gt;&lt;/div&gt;&lt;div style=&quot;font-size: 10px;&quot;&gt;&lt;font style=&quot;font-size: 10px;&quot;&gt;Opinion&lt;/font&gt;&lt;/div&gt;&lt;div style=&quot;font-size: 10px;&quot;&gt;&lt;font style=&quot;font-size: 10px;&quot;&gt;Puntuacion&lt;font style=&quot;font-size: 10px;&quot;&gt;&lt;br&gt;&lt;/font&gt;&lt;/font&gt;&lt;/div&gt;" style="rounded=0;whiteSpace=wrap;html=1;fontSize=30;fillColor=#f5f5f5;strokeColor=#666666;fontColor=#333333;fontFamily=Lucida Console;" parent="1" vertex="1">
          <mxGeometry x="610" y="440" width="140" height="80" as="geometry" />
        </mxCell>
        <mxCell id="74BELCQ8GyMcvEUJpIyk-32" value="" style="rounded=1;whiteSpace=wrap;html=1;fontSize=10;fillColor=#fff2cc;strokeColor=#d6b656;fontFamily=Lucida Console;" parent="1" vertex="1">
          <mxGeometry x="260" y="120" width="200" height="60" as="geometry" />
        </mxCell>
        <mxCell id="74BELCQ8GyMcvEUJpIyk-33" value="Gestion Mensual Ganancias" style="text;html=1;strokeColor=none;fillColor=none;align=center;verticalAlign=middle;whiteSpace=wrap;rounded=0;fontFamily=Lucida Console;" parent="1" vertex="1">
          <mxGeometry x="285" y="140" width="150" height="20" as="geometry" />
        </mxCell>
        <mxCell id="74BELCQ8GyMcvEUJpIyk-35" value="" style="rounded=1;whiteSpace=wrap;html=1;fontSize=10;fillColor=#fff2cc;strokeColor=#d6b656;fontFamily=Lucida Console;" parent="1" vertex="1">
          <mxGeometry x="420" y="40" width="200" height="60" as="geometry" />
        </mxCell>
        <mxCell id="74BELCQ8GyMcvEUJpIyk-37" value="Post Comidas" style="text;html=1;strokeColor=none;fillColor=none;align=center;verticalAlign=middle;whiteSpace=wrap;rounded=0;fontFamily=Lucida Console;" parent="1" vertex="1">
          <mxGeometry x="445" y="60" width="150" height="20" as="geometry" />
        </mxCell>
        <mxCell id="74BELCQ8GyMcvEUJpIyk-38" value="" style="rounded=1;whiteSpace=wrap;html=1;fontSize=10;fillColor=#fff2cc;strokeColor=#d6b656;fontFamily=Lucida Console;" parent="1" vertex="1">
          <mxGeometry x="580" y="120" width="200" height="60" as="geometry" />
        </mxCell>
        <mxCell id="EfOndb0SQZfeAL7E1h73-1" value="Opiniones de Clientes" style="text;html=1;strokeColor=none;fillColor=none;align=center;verticalAlign=middle;whiteSpace=wrap;rounded=0;fontFamily=Lucida Console;" vertex="1" parent="1">
          <mxGeometry x="605" y="140" width="150" height="20" as="geometry" />
        </mxCell>
        <mxCell id="EfOndb0SQZfeAL7E1h73-4" value="&lt;font style=&quot;font-size: 30px;&quot;&gt;C.R.U.D&lt;/font&gt;" style="text;html=1;strokeColor=none;fillColor=none;align=center;verticalAlign=middle;whiteSpace=wrap;rounded=0;fontFamily=Lucida Console;" vertex="1" parent="1">
          <mxGeometry x="50" y="120" width="60" height="30" as="geometry" />
        </mxCell>
        <mxCell id="EfOndb0SQZfeAL7E1h73-6" value="" style="rounded=0;whiteSpace=wrap;html=1;fillColor=#1ba1e2;fontColor=#ffffff;strokeColor=#006EAF;fontFamily=Lucida Console;" vertex="1" parent="1">
          <mxGeometry x="275" y="-500" width="330" height="190" as="geometry" />
        </mxCell>
        <mxCell id="EfOndb0SQZfeAL7E1h73-8" value="&lt;b&gt;Listenning&lt;/b&gt;" style="text;html=1;strokeColor=none;fillColor=none;align=center;verticalAlign=middle;whiteSpace=wrap;rounded=0;fontSize=24;fontFamily=Lucida Console;" vertex="1" parent="1">
          <mxGeometry x="425" y="-470" width="60" height="30" as="geometry" />
        </mxCell>
        <mxCell id="EfOndb0SQZfeAL7E1h73-9" value="&lt;div style=&quot;font-size: 24px;&quot; align=&quot;left&quot;&gt;&lt;ul style=&quot;font-size: 24px;&quot;&gt;&lt;li style=&quot;font-size: 24px;&quot;&gt;Express.js&lt;/li&gt;&lt;li style=&quot;font-size: 24px;&quot;&gt;Json&lt;/li&gt;&lt;li style=&quot;font-size: 24px;&quot;&gt;Port&lt;br style=&quot;font-size: 24px;&quot;&gt;&lt;/li&gt;&lt;/ul&gt;&lt;/div&gt;" style="text;html=1;strokeColor=none;fillColor=none;align=center;verticalAlign=middle;whiteSpace=wrap;rounded=0;fontSize=24;fontFamily=Lucida Console;" vertex="1" parent="1">
          <mxGeometry x="395" y="-420" width="90" height="60" as="geometry" />
        </mxCell>
        <mxCell id="EfOndb0SQZfeAL7E1h73-31" value="&lt;b&gt;Admin&lt;/b&gt; EndPoints" style="swimlane;fontStyle=0;childLayout=stackLayout;horizontal=1;startSize=30;horizontalStack=0;resizeParent=1;resizeParentMax=0;resizeLast=0;collapsible=1;marginBottom=0;whiteSpace=wrap;html=1;fontFamily=Lucida Console;" vertex="1" parent="1">
          <mxGeometry x="-665" y="-327.5" width="250" height="120" as="geometry" />
        </mxCell>
        <mxCell id="EfOndb0SQZfeAL7E1h73-32" value="&lt;b&gt;/api/admin/&lt;/b&gt;inventario" style="text;strokeColor=none;fillColor=none;align=left;verticalAlign=middle;spacingLeft=4;spacingRight=4;overflow=hidden;points=[[0,0.5],[1,0.5]];portConstraint=eastwest;rotatable=0;whiteSpace=wrap;html=1;fontFamily=Lucida Console;" vertex="1" parent="EfOndb0SQZfeAL7E1h73-31">
          <mxGeometry y="30" width="250" height="30" as="geometry" />
        </mxCell>
        <mxCell id="EfOndb0SQZfeAL7E1h73-33" value="&lt;b&gt;/api/admin/&lt;/b&gt;ganancias" style="text;strokeColor=none;fillColor=none;align=left;verticalAlign=middle;spacingLeft=4;spacingRight=4;overflow=hidden;points=[[0,0.5],[1,0.5]];portConstraint=eastwest;rotatable=0;whiteSpace=wrap;html=1;fontFamily=Lucida Console;" vertex="1" parent="EfOndb0SQZfeAL7E1h73-31">
          <mxGeometry y="60" width="250" height="30" as="geometry" />
        </mxCell>
        <mxCell id="EfOndb0SQZfeAL7E1h73-34" value="&lt;b&gt;/api/admin/&lt;/b&gt;diario" style="text;strokeColor=none;fillColor=none;align=left;verticalAlign=middle;spacingLeft=4;spacingRight=4;overflow=hidden;points=[[0,0.5],[1,0.5]];portConstraint=eastwest;rotatable=0;whiteSpace=wrap;html=1;fontFamily=Lucida Console;" vertex="1" parent="EfOndb0SQZfeAL7E1h73-31">
          <mxGeometry y="90" width="250" height="30" as="geometry" />
        </mxCell>
        <mxCell id="EfOndb0SQZfeAL7E1h73-35" value="" style="html=1;shadow=0;dashed=0;align=center;verticalAlign=middle;shape=mxgraph.arrows2.twoWayArrow;dy=0.65;dx=22;rotation=-90;fontFamily=Lucida Console;" vertex="1" parent="1">
          <mxGeometry x="100" y="190" width="200" height="30" as="geometry" />
        </mxCell>
        <mxCell id="EfOndb0SQZfeAL7E1h73-36" value="" style="html=1;shadow=0;dashed=0;align=center;verticalAlign=middle;shape=mxgraph.arrows2.twoWayArrow;dy=0.65;dx=22;rotation=-90;fontFamily=Lucida Console;" vertex="1" parent="1">
          <mxGeometry x="420" y="190" width="200" height="30" as="geometry" />
        </mxCell>
        <mxCell id="EfOndb0SQZfeAL7E1h73-37" value="" style="html=1;shadow=0;dashed=0;align=center;verticalAlign=middle;shape=mxgraph.arrows2.twoWayArrow;dy=0.65;dx=22;rotation=-90;fontFamily=Lucida Console;" vertex="1" parent="1">
          <mxGeometry x="295" y="230" width="130" height="30" as="geometry" />
        </mxCell>
        <mxCell id="EfOndb0SQZfeAL7E1h73-38" value="" style="html=1;shadow=0;dashed=0;align=center;verticalAlign=middle;shape=mxgraph.arrows2.twoWayArrow;dy=0.65;dx=22;rotation=-90;fontFamily=Lucida Console;" vertex="1" parent="1">
          <mxGeometry x="610" y="230" width="130" height="30" as="geometry" />
        </mxCell>
        <mxCell id="EfOndb0SQZfeAL7E1h73-44" value="" style="rounded=1;whiteSpace=wrap;html=1;fontFamily=Lucida Console;" vertex="1" parent="1">
          <mxGeometry x="-25" y="-287.5" width="930" height="270" as="geometry" />
        </mxCell>
        <mxCell id="EfOndb0SQZfeAL7E1h73-5" value="" style="rounded=0;whiteSpace=wrap;html=1;fillColor=#e1d5e7;strokeColor=#9673a6;fontFamily=Lucida Console;" vertex="1" parent="1">
          <mxGeometry x="5" y="-227.5" width="880" height="190" as="geometry" />
        </mxCell>
        <mxCell id="EfOndb0SQZfeAL7E1h73-7" value="&lt;div&gt;Routes&lt;/div&gt;&lt;div&gt;&lt;br&gt;&lt;/div&gt;" style="text;html=1;strokeColor=none;fillColor=none;align=center;verticalAlign=middle;whiteSpace=wrap;rounded=0;fontFamily=Lucida Console;" vertex="1" parent="1">
          <mxGeometry x="410" y="-217.5" width="60" height="20" as="geometry" />
        </mxCell>
        <mxCell id="EfOndb0SQZfeAL7E1h73-11" value="Ruta #1" style="shape=dataStorage;whiteSpace=wrap;html=1;fixedSize=1;fillColor=#f8cecc;strokeColor=#b85450;fontFamily=Lucida Console;" vertex="1" parent="1">
          <mxGeometry x="75" y="-197.5" width="170" height="130" as="geometry" />
        </mxCell>
        <mxCell id="EfOndb0SQZfeAL7E1h73-19" value="Ruta #2" style="shape=dataStorage;whiteSpace=wrap;html=1;fixedSize=1;fillColor=#f8cecc;strokeColor=#b85450;fontFamily=Lucida Console;" vertex="1" parent="1">
          <mxGeometry x="225" y="-197.5" width="170" height="130" as="geometry" />
        </mxCell>
        <mxCell id="EfOndb0SQZfeAL7E1h73-20" value="Ruta #3" style="shape=dataStorage;whiteSpace=wrap;html=1;fixedSize=1;fillColor=#f8cecc;strokeColor=#b85450;fontFamily=Lucida Console;" vertex="1" parent="1">
          <mxGeometry x="375" y="-197.5" width="170" height="130" as="geometry" />
        </mxCell>
        <mxCell id="EfOndb0SQZfeAL7E1h73-21" value="Ruta #..." style="shape=dataStorage;whiteSpace=wrap;html=1;fixedSize=1;fillColor=#d80073;strokeColor=#A50040;fontColor=#ffffff;fontFamily=Lucida Console;" vertex="1" parent="1">
          <mxGeometry x="525" y="-197.5" width="170" height="130" as="geometry" />
        </mxCell>
        <mxCell id="EfOndb0SQZfeAL7E1h73-22" value="Ruta #N" style="shape=dataStorage;whiteSpace=wrap;html=1;fixedSize=1;fillColor=#f8cecc;strokeColor=#b85450;fontFamily=Lucida Console;" vertex="1" parent="1">
          <mxGeometry x="675" y="-197.5" width="170" height="130" as="geometry" />
        </mxCell>
        <mxCell id="EfOndb0SQZfeAL7E1h73-45" value="Endpoints" style="text;html=1;strokeColor=none;fillColor=none;align=center;verticalAlign=middle;whiteSpace=wrap;rounded=0;fontFamily=Lucida Console;" vertex="1" parent="1">
          <mxGeometry x="410" y="-277.5" width="60" height="30" as="geometry" />
        </mxCell>
        <mxCell id="EfOndb0SQZfeAL7E1h73-39" value="" style="html=1;shadow=0;dashed=0;align=center;verticalAlign=middle;shape=mxgraph.arrows2.twoWayArrow;dy=0.65;dx=22;rotation=-90;fontFamily=Lucida Console;" vertex="1" parent="1">
          <mxGeometry x="281.25" y="26.25" width="137.5" height="30" as="geometry" />
        </mxCell>
        <mxCell id="EfOndb0SQZfeAL7E1h73-40" value="" style="html=1;shadow=0;dashed=0;align=center;verticalAlign=middle;shape=mxgraph.arrows2.twoWayArrow;dy=0.65;dx=22;rotation=-90;fontFamily=Lucida Console;" vertex="1" parent="1">
          <mxGeometry x="142.5" y="-17.5" width="65" height="30" as="geometry" />
        </mxCell>
        <mxCell id="EfOndb0SQZfeAL7E1h73-41" value="" style="html=1;shadow=0;dashed=0;align=center;verticalAlign=middle;shape=mxgraph.arrows2.twoWayArrow;dy=0.65;dx=22;rotation=-90;fontFamily=Lucida Console;" vertex="1" parent="1">
          <mxGeometry x="485" y="-15" width="70" height="30" as="geometry" />
        </mxCell>
        <mxCell id="EfOndb0SQZfeAL7E1h73-43" value="" style="html=1;shadow=0;dashed=0;align=center;verticalAlign=middle;shape=mxgraph.arrows2.twoWayArrow;dy=0.65;dx=22;rotation=-90;fontFamily=Lucida Console;" vertex="1" parent="1">
          <mxGeometry x="700" y="25" width="140" height="30" as="geometry" />
        </mxCell>
        <mxCell id="EfOndb0SQZfeAL7E1h73-48" value="&lt;b&gt;Client &lt;/b&gt;EndPoints" style="swimlane;fontStyle=0;childLayout=stackLayout;horizontal=1;startSize=30;horizontalStack=0;resizeParent=1;resizeParentMax=0;resizeLast=0;collapsible=1;marginBottom=0;whiteSpace=wrap;html=1;fontFamily=Lucida Console;" vertex="1" parent="1">
          <mxGeometry x="-665" y="-167.5" width="250" height="220" as="geometry">
            <mxRectangle x="-660" y="-80" width="130" height="30" as="alternateBounds" />
          </mxGeometry>
        </mxCell>
        <mxCell id="EfOndb0SQZfeAL7E1h73-49" value="&lt;b&gt;/api/client/&lt;/b&gt;diario/menu_dia" style="text;strokeColor=none;fillColor=none;align=left;verticalAlign=middle;spacingLeft=4;spacingRight=4;overflow=hidden;points=[[0,0.5],[1,0.5]];portConstraint=eastwest;rotatable=0;whiteSpace=wrap;html=1;fontFamily=Lucida Console;" vertex="1" parent="EfOndb0SQZfeAL7E1h73-48">
          <mxGeometry y="30" width="250" height="30" as="geometry" />
        </mxCell>
        <mxCell id="EfOndb0SQZfeAL7E1h73-50" value="&lt;b&gt;/api/client/&lt;/b&gt;diario/bocadillos" style="text;strokeColor=none;fillColor=none;align=left;verticalAlign=middle;spacingLeft=4;spacingRight=4;overflow=hidden;points=[[0,0.5],[1,0.5]];portConstraint=eastwest;rotatable=0;whiteSpace=wrap;html=1;fontFamily=Lucida Console;" vertex="1" parent="EfOndb0SQZfeAL7E1h73-48">
          <mxGeometry y="60" width="250" height="30" as="geometry" />
        </mxCell>
        <mxCell id="EfOndb0SQZfeAL7E1h73-52" value="&lt;div&gt;&lt;b&gt;/api/client/&lt;/b&gt;diario/entrantes&lt;/div&gt;" style="text;strokeColor=none;fillColor=none;align=left;verticalAlign=middle;spacingLeft=4;spacingRight=4;overflow=hidden;points=[[0,0.5],[1,0.5]];portConstraint=eastwest;rotatable=0;whiteSpace=wrap;html=1;fontFamily=Lucida Console;" vertex="1" parent="EfOndb0SQZfeAL7E1h73-48">
          <mxGeometry y="90" width="250" height="30" as="geometry" />
        </mxCell>
        <mxCell id="EfOndb0SQZfeAL7E1h73-51" value="&lt;div&gt;&lt;b&gt;/api/client/&lt;/b&gt;diario/bebidas&lt;/div&gt;" style="text;strokeColor=none;fillColor=none;align=left;verticalAlign=middle;spacingLeft=4;spacingRight=4;overflow=hidden;points=[[0,0.5],[1,0.5]];portConstraint=eastwest;rotatable=0;whiteSpace=wrap;html=1;fontFamily=Lucida Console;" vertex="1" parent="EfOndb0SQZfeAL7E1h73-48">
          <mxGeometry y="120" width="250" height="30" as="geometry" />
        </mxCell>
        <mxCell id="EfOndb0SQZfeAL7E1h73-53" value="&lt;div&gt;&lt;b&gt;/api/client/&lt;/b&gt;pedido&lt;/div&gt;" style="text;strokeColor=none;fillColor=none;align=left;verticalAlign=middle;spacingLeft=4;spacingRight=4;overflow=hidden;points=[[0,0.5],[1,0.5]];portConstraint=eastwest;rotatable=0;whiteSpace=wrap;html=1;fontFamily=Lucida Console;" vertex="1" parent="EfOndb0SQZfeAL7E1h73-48">
          <mxGeometry y="150" width="250" height="40" as="geometry" />
        </mxCell>
        <mxCell id="EfOndb0SQZfeAL7E1h73-54" value="&lt;div&gt;&lt;b&gt;/api/client/&lt;/b&gt;opiniones&lt;/div&gt;" style="text;strokeColor=none;fillColor=none;align=left;verticalAlign=middle;spacingLeft=4;spacingRight=4;overflow=hidden;points=[[0,0.5],[1,0.5]];portConstraint=eastwest;rotatable=0;whiteSpace=wrap;html=1;fontFamily=Lucida Console;" vertex="1" parent="EfOndb0SQZfeAL7E1h73-48">
          <mxGeometry y="190" width="250" height="30" as="geometry" />
        </mxCell>
        <mxCell id="EfOndb0SQZfeAL7E1h73-55" value="" style="html=1;shadow=0;dashed=0;align=center;verticalAlign=middle;shape=mxgraph.arrows2.arrow;dy=0.67;dx=20;notch=0;rotation=-180;fontFamily=Lucida Console;" vertex="1" parent="1">
          <mxGeometry x="-330" y="-161.25" width="305" height="37.5" as="geometry" />
        </mxCell>
        <mxCell id="EfOndb0SQZfeAL7E1h73-56" value="" style="rounded=1;whiteSpace=wrap;html=1;fontSize=10;fontFamily=Lucida Console;" vertex="1" parent="1">
          <mxGeometry x="-590" y="470" width="510" height="340" as="geometry" />
        </mxCell>
        <mxCell id="EfOndb0SQZfeAL7E1h73-57" value="&lt;h1&gt;MODELO DE DATOS: INVENTARIO&lt;br&gt;&lt;/h1&gt;&lt;p&gt;Modelo de datos esquemático según estructura planteada:&lt;/p&gt;&lt;p&gt;&lt;br&gt;&lt;/p&gt;&lt;p&gt;{ &lt;br&gt;&lt;/p&gt;&lt;p&gt;&lt;b&gt;&lt;span style=&quot;&quot;&gt;	&lt;/span&gt;id: &lt;/b&gt;string,&amp;nbsp;&lt;/p&gt;&lt;p&gt;&lt;span style=&quot;&quot;&gt;	&lt;/span&gt;&lt;b&gt;nombre: &lt;/b&gt;string,&lt;/p&gt;&lt;p&gt;&lt;span style=&quot;&quot;&gt;	&lt;b&gt;proveedor: &lt;/b&gt;string&lt;/span&gt;,&lt;/p&gt;&lt;p&gt;&lt;span style=&quot;&quot;&gt;	&lt;b&gt;unidades: &lt;/b&gt;number,&lt;/span&gt;&lt;/p&gt;&lt;p&gt;&lt;span style=&quot;&quot;&gt;&lt;span style=&quot;&quot;&gt;	&lt;/span&gt;&lt;b&gt;precio: &lt;/b&gt;number&lt;b&gt; &lt;br&gt;&lt;/b&gt;&lt;/span&gt;&lt;/p&gt;&lt;p&gt;}&lt;/p&gt;" style="text;html=1;strokeColor=none;fillColor=none;spacing=5;spacingTop=-20;whiteSpace=wrap;overflow=hidden;rounded=0;fontFamily=Lucida Console;" vertex="1" parent="1">
          <mxGeometry x="-560" y="490" width="420" height="300" as="geometry" />
        </mxCell>
        <mxCell id="EfOndb0SQZfeAL7E1h73-58" value="&lt;div&gt;&lt;br&gt;&lt;/div&gt;&lt;div&gt;&lt;br&gt;&lt;/div&gt;&lt;div&gt;&lt;br&gt;&lt;/div&gt;&lt;div&gt;&lt;br&gt;&lt;/div&gt;&lt;div&gt;&lt;br&gt;&lt;/div&gt;&lt;div&gt;&lt;br&gt;&lt;/div&gt;&lt;div&gt;&lt;br&gt;&lt;/div&gt;&lt;p&gt;{ &lt;br&gt;&lt;/p&gt;&lt;p&gt;&lt;b&gt;&lt;span style=&quot;&quot;&gt;	&lt;/span&gt;id: &lt;/b&gt;string,&amp;nbsp;&lt;/p&gt;&lt;p&gt;&lt;span style=&quot;&quot;&gt;	&lt;/span&gt;&lt;b&gt;nombre: &lt;/b&gt;string,&lt;/p&gt;&lt;p&gt;&lt;span style=&quot;&quot;&gt;	&lt;b&gt;proveedor: &lt;/b&gt;string&lt;/span&gt;,&lt;/p&gt;&lt;p&gt;&lt;span style=&quot;&quot;&gt;	&lt;b&gt;kilos: &lt;/b&gt;number,&lt;/span&gt;&lt;/p&gt;&lt;p&gt;&lt;span style=&quot;&quot;&gt;&lt;span style=&quot;&quot;&gt;	&lt;/span&gt;&lt;b&gt;precio: &lt;/b&gt;number&lt;b&gt; &lt;br&gt;&lt;/b&gt;&lt;/span&gt;&lt;/p&gt;&lt;p&gt;}&lt;/p&gt;" style="text;html=1;strokeColor=none;fillColor=none;spacing=5;spacingTop=-20;whiteSpace=wrap;overflow=hidden;rounded=0;fontFamily=Lucida Console;" vertex="1" parent="1">
          <mxGeometry x="-230" y="490" width="120" height="300" as="geometry" />
        </mxCell>
        <mxCell id="EfOndb0SQZfeAL7E1h73-62" value="" style="rounded=1;whiteSpace=wrap;html=1;fontSize=10;fontFamily=Lucida Console;" vertex="1" parent="1">
          <mxGeometry x="-250" y="1000" width="510" height="340" as="geometry" />
        </mxCell>
        <mxCell id="EfOndb0SQZfeAL7E1h73-63" value="&lt;h1&gt;MODELO DE DATOS: ECONOMIA&lt;br&gt;&lt;/h1&gt;&lt;p&gt;Modelo de datos esquemático según estructura planteada:&lt;/p&gt;&lt;div&gt;[&lt;/div&gt;&lt;div&gt;&lt;span style=&quot;white-space: pre;&quot;&gt;	&lt;/span&gt;{&lt;/div&gt;&lt;div&gt;&lt;span style=&quot;white-space: pre;&quot;&gt;	&lt;span style=&quot;white-space: pre;&quot;&gt;	&lt;b&gt;id: &lt;/b&gt;string,&lt;/span&gt;&lt;/span&gt;&lt;/div&gt;&lt;div&gt;&lt;span style=&quot;white-space: pre;&quot;&gt;&lt;span style=&quot;white-space: pre;&quot;&gt;&lt;span style=&quot;white-space: pre;&quot;&gt;	&lt;/span&gt;&lt;span style=&quot;white-space: pre;&quot;&gt;	&lt;/span&gt;&lt;b&gt;fecha: &lt;/b&gt;string,&lt;/span&gt;&lt;/span&gt;&lt;/div&gt;&lt;div&gt;&lt;span style=&quot;white-space: pre;&quot;&gt;&lt;span style=&quot;white-space: pre;&quot;&gt;&lt;span style=&quot;white-space: pre;&quot;&gt;	&lt;/span&gt;&lt;span style=&quot;white-space: pre;&quot;&gt;	&lt;/span&gt;&lt;b&gt;ganancia_mensual_total: &lt;/b&gt;number&lt;br&gt;&lt;/span&gt;&lt;/span&gt;&lt;/div&gt;&lt;div&gt;&lt;span style=&quot;white-space: pre;&quot;&gt;	&lt;/span&gt;},&lt;br&gt;&lt;/div&gt;&lt;div&gt;]&lt;/div&gt;" style="text;html=1;strokeColor=none;fillColor=none;spacing=5;spacingTop=-20;whiteSpace=wrap;overflow=hidden;rounded=0;fontFamily=Lucida Console;" vertex="1" parent="1">
          <mxGeometry x="-220" y="1020" width="420" height="300" as="geometry" />
        </mxCell>
        <mxCell id="EfOndb0SQZfeAL7E1h73-64" value="" style="rounded=1;whiteSpace=wrap;html=1;fontSize=10;fontFamily=Lucida Console;" vertex="1" parent="1">
          <mxGeometry x="410" y="990" width="510" height="690" as="geometry" />
        </mxCell>
        <mxCell id="EfOndb0SQZfeAL7E1h73-65" value="&lt;h1&gt;MODELO DE DATOS: OFERTAS&lt;br&gt;&lt;/h1&gt;&lt;p&gt;Modelo de datos esquemático según estructura planteada:&lt;/p&gt;&lt;div&gt;&lt;br&gt;&lt;/div&gt;&lt;div&gt;[&lt;/div&gt;&lt;div&gt;&lt;span style=&quot;&quot;&gt;	&lt;/span&gt;&lt;span style=&quot;&quot;&gt;	&lt;/span&gt;&lt;b&gt;&lt;span style=&quot;&quot;&gt;	&lt;/span&gt;&lt;span style=&quot;white-space: pre;&quot;&gt;	&lt;/span&gt;menu_del_dia: &lt;br&gt;&lt;/b&gt;&lt;/div&gt;&lt;div&gt;&lt;span style=&quot;&quot;&gt;	&lt;/span&gt;&lt;span style=&quot;&quot;&gt;	&lt;/span&gt;&lt;span style=&quot;white-space: pre;&quot;&gt;	&lt;/span&gt;{&lt;/div&gt;&lt;div&gt;&lt;span style=&quot;&quot;&gt;	&lt;span style=&quot;&quot;&gt;	&lt;/span&gt;&lt;b&gt;&lt;span style=&quot;&quot;&gt;	&lt;/span&gt;&lt;span style=&quot;&quot;&gt;	&lt;/span&gt;&lt;span style=&quot;white-space: pre;&quot;&gt;	&lt;/span&gt;&lt;span style=&quot;white-space: pre;&quot;&gt;	&lt;/span&gt;id: &lt;/b&gt;string,&lt;/span&gt;&lt;/div&gt;&lt;div&gt;&lt;span style=&quot;&quot;&gt;&lt;span style=&quot;&quot;&gt;	&lt;/span&gt;&lt;span style=&quot;&quot;&gt;	&lt;/span&gt;&lt;b&gt;&lt;span style=&quot;&quot;&gt;	&lt;/span&gt;&lt;span style=&quot;&quot;&gt;	&lt;/span&gt;&lt;span style=&quot;white-space: pre;&quot;&gt;	&lt;/span&gt;&lt;span style=&quot;white-space: pre;&quot;&gt;	&lt;/span&gt;primero:&lt;/b&gt; string,&lt;/span&gt;&lt;/div&gt;&lt;div&gt;&lt;span style=&quot;&quot;&gt;&lt;span style=&quot;&quot;&gt;	&lt;/span&gt;&lt;span style=&quot;&quot;&gt;	&lt;/span&gt;&lt;b&gt;&lt;span style=&quot;&quot;&gt;	&lt;/span&gt;&lt;span style=&quot;&quot;&gt;	&lt;/span&gt;&lt;span style=&quot;white-space: pre;&quot;&gt;	&lt;/span&gt;&lt;span style=&quot;white-space: pre;&quot;&gt;	&lt;/span&gt;segundo: &lt;/b&gt;string,&lt;/span&gt;&lt;/div&gt;&lt;div&gt;&lt;span style=&quot;&quot;&gt;&lt;span style=&quot;&quot;&gt;	&lt;/span&gt;&lt;span style=&quot;&quot;&gt;	&lt;/span&gt;&lt;b&gt;&lt;span style=&quot;&quot;&gt;	&lt;/span&gt;&lt;span style=&quot;&quot;&gt;	&lt;/span&gt;&lt;span style=&quot;white-space: pre;&quot;&gt;	&lt;span style=&quot;white-space: pre;&quot;&gt;	&lt;/span&gt;&lt;/span&gt;postre: &lt;/b&gt;string,&lt;/span&gt;&lt;/div&gt;&lt;div&gt;&lt;span style=&quot;&quot;&gt;&lt;span style=&quot;&quot;&gt;	&lt;/span&gt;&lt;span style=&quot;&quot;&gt;	&lt;/span&gt;&lt;b&gt;&lt;span style=&quot;&quot;&gt;	&lt;/span&gt;&lt;span style=&quot;&quot;&gt;	&lt;/span&gt;&lt;span style=&quot;white-space: pre;&quot;&gt;	&lt;/span&gt;&lt;span style=&quot;white-space: pre;&quot;&gt;	&lt;/span&gt;bebida: &lt;/b&gt;string,&lt;/span&gt;&lt;/div&gt;&lt;div&gt;&lt;span style=&quot;&quot;&gt;&lt;span style=&quot;&quot;&gt;	&lt;/span&gt;&lt;span style=&quot;&quot;&gt;	&lt;/span&gt;&lt;b&gt;&lt;span style=&quot;&quot;&gt;	&lt;/span&gt;&lt;span style=&quot;&quot;&gt;	&lt;/span&gt;&lt;span style=&quot;white-space: pre;&quot;&gt;	&lt;/span&gt;&lt;span style=&quot;white-space: pre;&quot;&gt;	&lt;/span&gt;pan: &lt;/b&gt;boolean,&lt;/span&gt;&lt;/div&gt;&lt;div&gt;&lt;span style=&quot;&quot;&gt;&lt;span style=&quot;&quot;&gt;	&lt;/span&gt;&lt;span style=&quot;&quot;&gt;	&lt;/span&gt;&lt;b&gt;&lt;span style=&quot;&quot;&gt;	&lt;/span&gt;&lt;span style=&quot;&quot;&gt;	&lt;/span&gt;&lt;span style=&quot;white-space: pre;&quot;&gt;	&lt;/span&gt;&lt;span style=&quot;white-space: pre;&quot;&gt;	&lt;/span&gt;precio: &lt;/b&gt;number&lt;br&gt;&lt;/span&gt;&lt;/div&gt;&lt;div&gt;&lt;span style=&quot;&quot;&gt;	&lt;/span&gt;&lt;span style=&quot;&quot;&gt;	&lt;/span&gt;&lt;span style=&quot;white-space: pre;&quot;&gt;	&lt;/span&gt;},&lt;/div&gt;&lt;div&gt;&lt;span style=&quot;&quot;&gt;	&lt;/span&gt;&lt;/div&gt;&lt;div&gt;&lt;span style=&quot;&quot;&gt;	&lt;/span&gt;&lt;b&gt;&lt;span style=&quot;white-space: pre;&quot;&gt;	&lt;/span&gt;bocadillos: &lt;/b&gt;[&lt;/div&gt;&lt;div&gt;&lt;span style=&quot;&quot;&gt;	&lt;span style=&quot;&quot;&gt;	&lt;/span&gt;&lt;span style=&quot;white-space: pre;&quot;&gt;	&lt;span style=&quot;white-space: pre;&quot;&gt;	&lt;/span&gt;&lt;/span&gt;{&lt;/span&gt;&lt;/div&gt;&lt;div&gt;&lt;span style=&quot;&quot;&gt;&lt;span style=&quot;&quot;&gt;	&lt;/span&gt;&lt;span style=&quot;&quot;&gt;	&lt;span style=&quot;&quot;&gt;	&lt;/span&gt;&lt;/span&gt;&lt;b&gt;&lt;span style=&quot;white-space: pre;&quot;&gt;	&lt;span style=&quot;white-space: pre;&quot;&gt;	&lt;/span&gt;&lt;/span&gt;&lt;span style=&quot;white-space: pre;&quot;&gt;	&lt;/span&gt;id:&lt;/b&gt; string,&lt;/span&gt;&lt;/div&gt;&lt;div&gt;&lt;span style=&quot;&quot;&gt;&lt;span style=&quot;&quot;&gt;	&lt;/span&gt;&lt;span style=&quot;&quot;&gt;	&lt;/span&gt;&lt;span style=&quot;&quot;&gt;	&lt;/span&gt;&lt;b&gt;&lt;span style=&quot;white-space: pre;&quot;&gt;	&lt;span style=&quot;white-space: pre;&quot;&gt;	&lt;/span&gt;&lt;/span&gt;&lt;span style=&quot;white-space: pre;&quot;&gt;	&lt;/span&gt;nombre: &lt;/b&gt; string,&lt;/span&gt;&lt;/div&gt;&lt;div&gt;&lt;span style=&quot;&quot;&gt;&lt;span style=&quot;&quot;&gt;	&lt;/span&gt;&lt;span style=&quot;&quot;&gt;	&lt;/span&gt;&lt;span style=&quot;&quot;&gt;	&lt;/span&gt;&lt;b&gt;&lt;span style=&quot;white-space: pre;&quot;&gt;	&lt;span style=&quot;white-space: pre;&quot;&gt;	&lt;/span&gt;&lt;/span&gt;&lt;span style=&quot;white-space: pre;&quot;&gt;	&lt;/span&gt;ingredientes: &lt;/b&gt; string,&lt;/span&gt;&lt;/div&gt;&lt;div&gt;&lt;span style=&quot;&quot;&gt;&lt;span style=&quot;&quot;&gt;	&lt;/span&gt;&lt;span style=&quot;&quot;&gt;	&lt;/span&gt;&lt;span style=&quot;&quot;&gt;	&lt;/span&gt;&lt;b&gt;&lt;span style=&quot;white-space: pre;&quot;&gt;	&lt;span style=&quot;white-space: pre;&quot;&gt;	&lt;/span&gt;&lt;/span&gt;&lt;span style=&quot;white-space: pre;&quot;&gt;	&lt;/span&gt;precio&lt;/b&gt;: number&lt;br&gt;&lt;/span&gt;&lt;/div&gt;&lt;div&gt;&lt;span style=&quot;&quot;&gt;&lt;span style=&quot;&quot;&gt;	&lt;/span&gt;&lt;span style=&quot;&quot;&gt;	&lt;/span&gt;&lt;span style=&quot;white-space: pre;&quot;&gt;	&lt;span style=&quot;white-space: pre;&quot;&gt;	&lt;/span&gt;&lt;/span&gt;}&lt;/span&gt;&lt;/div&gt;&lt;div&gt;&lt;span style=&quot;&quot;&gt;	&lt;/span&gt;&lt;span style=&quot;white-space: pre;&quot;&gt;	&lt;/span&gt;],&lt;/div&gt;&lt;div&gt;&lt;br&gt;&lt;/div&gt;&lt;div&gt;&lt;span style=&quot;&quot;&gt;	&lt;/span&gt;&lt;b&gt;&lt;span style=&quot;white-space: pre;&quot;&gt;	&lt;/span&gt;bebidas: &lt;/b&gt;[&lt;/div&gt;&lt;div&gt;&lt;span style=&quot;&quot;&gt;	&lt;span style=&quot;&quot;&gt;	&lt;span style=&quot;white-space: pre;&quot;&gt;	&lt;/span&gt;&lt;span style=&quot;white-space: pre;&quot;&gt;	&lt;/span&gt;{&lt;/span&gt;&lt;/span&gt;&lt;/div&gt;&lt;div&gt;&lt;span style=&quot;&quot;&gt;&lt;span style=&quot;&quot;&gt;&lt;span style=&quot;&quot;&gt;	&lt;/span&gt;&lt;span style=&quot;&quot;&gt;	&lt;/span&gt;&lt;span style=&quot;&quot;&gt;	&lt;/span&gt;&lt;b&gt;&lt;span style=&quot;white-space: pre;&quot;&gt;	&lt;/span&gt;&lt;span style=&quot;white-space: pre;&quot;&gt;	&lt;/span&gt;&lt;span style=&quot;white-space: pre;&quot;&gt;	&lt;/span&gt;id&lt;/b&gt;: string,&lt;/span&gt;&lt;/span&gt;&lt;/div&gt;&lt;div&gt;&lt;span style=&quot;&quot;&gt;&lt;span style=&quot;&quot;&gt;&lt;span style=&quot;&quot;&gt;	&lt;/span&gt;&lt;span style=&quot;&quot;&gt;	&lt;/span&gt;&lt;span style=&quot;&quot;&gt;	&lt;/span&gt;&lt;b&gt;&lt;span style=&quot;white-space: pre;&quot;&gt;	&lt;/span&gt;&lt;span style=&quot;white-space: pre;&quot;&gt;	&lt;/span&gt;&lt;span style=&quot;white-space: pre;&quot;&gt;	&lt;/span&gt;nombre: &lt;/b&gt;string,&lt;/span&gt;&lt;/span&gt;&lt;/div&gt;&lt;div&gt;&lt;span style=&quot;&quot;&gt;&lt;span style=&quot;&quot;&gt;&lt;span style=&quot;&quot;&gt;	&lt;/span&gt;&lt;span style=&quot;&quot;&gt;	&lt;/span&gt;&lt;span style=&quot;&quot;&gt;	&lt;/span&gt;&lt;b&gt;&lt;span style=&quot;white-space: pre;&quot;&gt;	&lt;/span&gt;&lt;span style=&quot;white-space: pre;&quot;&gt;	&lt;/span&gt;&lt;span style=&quot;white-space: pre;&quot;&gt;	&lt;/span&gt;precio: &lt;/b&gt;string&lt;br&gt;&lt;/span&gt;&lt;/span&gt;&lt;/div&gt;&lt;div&gt;&lt;span style=&quot;&quot;&gt;&lt;span style=&quot;&quot;&gt;&lt;span style=&quot;&quot;&gt;	&lt;/span&gt;&lt;span style=&quot;&quot;&gt;	&lt;/span&gt;&lt;span style=&quot;white-space: pre;&quot;&gt;	&lt;/span&gt;&lt;span style=&quot;white-space: pre;&quot;&gt;	&lt;/span&gt;}&lt;/span&gt;&lt;/span&gt;&lt;/div&gt;&lt;div&gt;&lt;span style=&quot;&quot;&gt;	&lt;/span&gt;&lt;span style=&quot;white-space: pre;&quot;&gt;	&lt;/span&gt;],&lt;/div&gt;&lt;div&gt;&lt;br&gt;&lt;/div&gt;&lt;div&gt;&lt;div&gt;&lt;br&gt;&lt;/div&gt;&lt;div&gt;	&lt;b&gt;&lt;span style=&quot;white-space: pre;&quot;&gt;	&lt;/span&gt;aperitivos: &lt;/b&gt;[&lt;/div&gt;&lt;div&gt;&lt;span style=&quot;&quot;&gt;	&lt;span style=&quot;&quot;&gt;	&lt;span style=&quot;white-space: pre;&quot;&gt;	&lt;/span&gt;&lt;span style=&quot;white-space: pre;&quot;&gt;	&lt;/span&gt;{&lt;/span&gt;&lt;/span&gt;&lt;/div&gt;&lt;div&gt;&lt;span style=&quot;&quot;&gt;&lt;span style=&quot;&quot;&gt;&lt;span style=&quot;&quot;&gt;	&lt;/span&gt;&lt;span style=&quot;&quot;&gt;	&lt;/span&gt;&lt;span style=&quot;&quot;&gt;	&lt;/span&gt;&lt;b&gt;&lt;span style=&quot;white-space: pre;&quot;&gt;	&lt;/span&gt;&lt;span style=&quot;white-space: pre;&quot;&gt;	&lt;/span&gt;&lt;span style=&quot;white-space: pre;&quot;&gt;	&lt;/span&gt;id&lt;/b&gt;: string,&lt;/span&gt;&lt;/span&gt;&lt;/div&gt;&lt;div&gt;&lt;span style=&quot;&quot;&gt;&lt;span style=&quot;&quot;&gt;&lt;span style=&quot;&quot;&gt;	&lt;/span&gt;&lt;span style=&quot;&quot;&gt;	&lt;/span&gt;&lt;span style=&quot;&quot;&gt;	&lt;/span&gt;&lt;b&gt;&lt;span style=&quot;white-space: pre;&quot;&gt;	&lt;/span&gt;&lt;span style=&quot;white-space: pre;&quot;&gt;	&lt;/span&gt;&lt;span style=&quot;white-space: pre;&quot;&gt;	&lt;/span&gt;nombre: &lt;/b&gt;string,&lt;/span&gt;&lt;/span&gt;&lt;/div&gt;&lt;div&gt;&lt;span style=&quot;&quot;&gt;&lt;span style=&quot;&quot;&gt;&lt;span style=&quot;&quot;&gt;	&lt;/span&gt;&lt;span style=&quot;&quot;&gt;	&lt;/span&gt;&lt;span style=&quot;&quot;&gt;	&lt;/span&gt;&lt;b&gt;&lt;span style=&quot;white-space: pre;&quot;&gt;	&lt;/span&gt;&lt;span style=&quot;white-space: pre;&quot;&gt;	&lt;/span&gt;&lt;span style=&quot;white-space: pre;&quot;&gt;	&lt;/span&gt;precio: &lt;/b&gt;string&lt;br&gt;&lt;/span&gt;&lt;/span&gt;&lt;/div&gt;&lt;div&gt;&lt;span style=&quot;&quot;&gt;&lt;span style=&quot;&quot;&gt;&lt;span style=&quot;&quot;&gt;	&lt;/span&gt;&lt;span style=&quot;&quot;&gt;	&lt;/span&gt;&lt;span style=&quot;white-space: pre;&quot;&gt;	&lt;/span&gt;&lt;span style=&quot;white-space: pre;&quot;&gt;	&lt;/span&gt;}&lt;/span&gt;&lt;/span&gt;&lt;/div&gt;&lt;span style=&quot;&quot;&gt;	&lt;/span&gt;&lt;span style=&quot;white-space: pre;&quot;&gt;	&lt;/span&gt;]&lt;/div&gt;&lt;div&gt;&lt;span style=&quot;&quot;&gt;&lt;span style=&quot;&quot;&gt;	&lt;/span&gt;&lt;span style=&quot;&quot;&gt;	&lt;/span&gt;]	&lt;/span&gt;&lt;/div&gt;&lt;div&gt;&lt;br&gt;&lt;/div&gt;" style="text;html=1;strokeColor=none;fillColor=none;spacing=5;spacingTop=-20;whiteSpace=wrap;overflow=hidden;rounded=0;fontFamily=Lucida Console;" vertex="1" parent="1">
          <mxGeometry x="440" y="1010" width="450" height="660" as="geometry" />
        </mxCell>
        <mxCell id="EfOndb0SQZfeAL7E1h73-70" value="" style="rounded=1;whiteSpace=wrap;html=1;fontSize=10;fontFamily=Lucida Console;" vertex="1" parent="1">
          <mxGeometry x="960" y="470" width="510" height="340" as="geometry" />
        </mxCell>
        <mxCell id="EfOndb0SQZfeAL7E1h73-71" value="&lt;h1&gt;MODELO DE DATOS: SOCIAL&lt;br&gt;&lt;/h1&gt;&lt;p&gt;Modelo de datos esquemático según estructura planteada:&lt;/p&gt;&lt;div&gt;[&lt;/div&gt;&lt;div&gt;&lt;span style=&quot;white-space: pre;&quot;&gt;	&lt;/span&gt;{&lt;/div&gt;&lt;div&gt;&lt;span style=&quot;white-space: pre;&quot;&gt;	&lt;span style=&quot;white-space: pre;&quot;&gt;	&lt;b&gt;id: &lt;/b&gt;string,&lt;/span&gt;&lt;/span&gt;&lt;/div&gt;&lt;div&gt;&lt;span style=&quot;white-space: pre;&quot;&gt;&lt;span style=&quot;white-space: pre;&quot;&gt;&lt;span style=&quot;white-space: pre;&quot;&gt;	&lt;/span&gt;&lt;span style=&quot;white-space: pre;&quot;&gt;	&lt;/span&gt;&lt;b&gt;fecha: &lt;/b&gt;string,&lt;/span&gt;&lt;/span&gt;&lt;/div&gt;&lt;div&gt;&lt;span style=&quot;white-space: pre;&quot;&gt;&lt;span style=&quot;white-space: pre;&quot;&gt;&lt;span style=&quot;white-space: pre;&quot;&gt;	&lt;/span&gt;&lt;span style=&quot;white-space: pre;&quot;&gt;	&lt;/span&gt;&lt;b&gt;opinion: &lt;/b&gt; string,&lt;br&gt;&lt;/span&gt;&lt;/span&gt;&lt;/div&gt;&lt;div&gt;&lt;span style=&quot;white-space: pre;&quot;&gt;&lt;span style=&quot;white-space: pre;&quot;&gt;&lt;span style=&quot;white-space: pre;&quot;&gt;	&lt;/span&gt;&lt;span style=&quot;white-space: pre;&quot;&gt;	&lt;/span&gt;&lt;b&gt;puntuacion: &lt;/b&gt;number&lt;br&gt;&lt;/span&gt;&lt;/span&gt;&lt;/div&gt;&lt;div&gt;&lt;span style=&quot;white-space: pre;&quot;&gt;	&lt;/span&gt;},&lt;br&gt;&lt;/div&gt;&lt;div&gt;]&lt;/div&gt;" style="text;html=1;strokeColor=none;fillColor=none;spacing=5;spacingTop=-20;whiteSpace=wrap;overflow=hidden;rounded=0;fontFamily=Lucida Console;" vertex="1" parent="1">
          <mxGeometry x="990" y="490" width="420" height="300" as="geometry" />
        </mxCell>
        <mxCell id="EfOndb0SQZfeAL7E1h73-73" value="" style="curved=1;endArrow=classic;html=1;rounded=0;entryX=-0.007;entryY=0.474;entryDx=0;entryDy=0;entryPerimeter=0;fillColor=#1ba1e2;strokeColor=#006EAF;fontFamily=Lucida Console;" edge="1" parent="1" source="EfOndb0SQZfeAL7E1h73-56" target="EfOndb0SQZfeAL7E1h73-62">
          <mxGeometry width="50" height="50" relative="1" as="geometry">
            <mxPoint x="-440" y="1100" as="sourcePoint" />
            <mxPoint x="-380" y="1290" as="targetPoint" />
            <Array as="points">
              <mxPoint x="-370" y="890" />
              <mxPoint x="-540" y="1110" />
            </Array>
          </mxGeometry>
        </mxCell>
        <mxCell id="EfOndb0SQZfeAL7E1h73-74" value="" style="curved=1;endArrow=classic;html=1;rounded=0;entryX=-0.005;entryY=0.602;entryDx=0;entryDy=0;entryPerimeter=0;fillColor=#1ba1e2;strokeColor=#006EAF;fontFamily=Lucida Console;" edge="1" parent="1" target="EfOndb0SQZfeAL7E1h73-64">
          <mxGeometry width="50" height="50" relative="1" as="geometry">
            <mxPoint x="-359" y="810" as="sourcePoint" />
            <mxPoint x="-370" y="1440" as="targetPoint" />
            <Array as="points">
              <mxPoint x="-370" y="890" />
              <mxPoint x="-540" y="1110" />
              <mxPoint x="-260" y="1500" />
            </Array>
          </mxGeometry>
        </mxCell>
        <mxCell id="EfOndb0SQZfeAL7E1h73-75" value="" style="curved=1;endArrow=classic;html=1;rounded=0;entryX=0.5;entryY=1;entryDx=0;entryDy=0;fillColor=#1ba1e2;strokeColor=#006EAF;fontFamily=Lucida Console;" edge="1" parent="1" target="EfOndb0SQZfeAL7E1h73-70">
          <mxGeometry width="50" height="50" relative="1" as="geometry">
            <mxPoint x="-356" y="810" as="sourcePoint" />
            <mxPoint x="410" y="1405" as="targetPoint" />
            <Array as="points">
              <mxPoint x="-367" y="890" />
              <mxPoint x="-537" y="1110" />
              <mxPoint x="-320" y="1760" />
              <mxPoint x="1270" y="1900" />
            </Array>
          </mxGeometry>
        </mxCell>
        <mxCell id="EfOndb0SQZfeAL7E1h73-76" value="" style="html=1;shadow=0;dashed=0;align=center;verticalAlign=middle;shape=mxgraph.arrows2.twoWayArrow;dy=0.65;dx=22;rotation=-90;fontFamily=Lucida Console;" vertex="1" parent="1">
          <mxGeometry x="-75" y="-675" width="200" height="100" as="geometry" />
        </mxCell>
        <mxCell id="EfOndb0SQZfeAL7E1h73-77" value="" style="html=1;shadow=0;dashed=0;align=center;verticalAlign=middle;shape=mxgraph.arrows2.twoWayArrow;dy=0.65;dx=22;rotation=-90;fontFamily=Lucida Console;" vertex="1" parent="1">
          <mxGeometry x="85" y="-675" width="200" height="100" as="geometry" />
        </mxCell>
        <mxCell id="EfOndb0SQZfeAL7E1h73-78" value="" style="html=1;shadow=0;dashed=0;align=center;verticalAlign=middle;shape=mxgraph.arrows2.twoWayArrow;dy=0.65;dx=22;rotation=-90;fontFamily=Lucida Console;" vertex="1" parent="1">
          <mxGeometry x="245" y="-675" width="200" height="100" as="geometry" />
        </mxCell>
        <mxCell id="EfOndb0SQZfeAL7E1h73-79" value="" style="html=1;shadow=0;dashed=0;align=center;verticalAlign=middle;shape=mxgraph.arrows2.twoWayArrow;dy=0.65;dx=22;rotation=-90;fontFamily=Lucida Console;" vertex="1" parent="1">
          <mxGeometry x="405" y="-675" width="200" height="100" as="geometry" />
        </mxCell>
        <mxCell id="EfOndb0SQZfeAL7E1h73-80" value="" style="html=1;shadow=0;dashed=0;align=center;verticalAlign=middle;shape=mxgraph.arrows2.twoWayArrow;dy=0.65;dx=22;rotation=-90;fontFamily=Lucida Console;" vertex="1" parent="1">
          <mxGeometry x="565" y="-675" width="200" height="100" as="geometry" />
        </mxCell>
        <mxCell id="EfOndb0SQZfeAL7E1h73-81" value="" style="html=1;shadow=0;dashed=0;align=center;verticalAlign=middle;shape=mxgraph.arrows2.twoWayArrow;dy=0.65;dx=22;rotation=-90;fontFamily=Lucida Console;" vertex="1" parent="1">
          <mxGeometry x="725" y="-675" width="200" height="100" as="geometry" />
        </mxCell>
        <mxCell id="EfOndb0SQZfeAL7E1h73-84" value="" style="html=1;shadow=0;dashed=0;align=center;verticalAlign=middle;shape=mxgraph.arrows2.arrow;dy=0.67;dx=20;notch=0;rotation=0;fontFamily=Lucida Console;" vertex="1" parent="1">
          <mxGeometry x="1040" y="-161.25" width="305" height="37.5" as="geometry" />
        </mxCell>
        <mxCell id="EfOndb0SQZfeAL7E1h73-85" value="" style="rounded=1;whiteSpace=wrap;html=1;fontSize=30;fillColor=#60a917;fontColor=#ffffff;strokeColor=#2D7600;fontFamily=Lucida Console;" vertex="1" parent="1">
          <mxGeometry x="1345" y="-323.12" width="400" height="361.25" as="geometry" />
        </mxCell>
        <mxCell id="EfOndb0SQZfeAL7E1h73-88" value="&lt;h1&gt;Dependencias Fundamentales&lt;br&gt;&lt;/h1&gt;&lt;ul&gt;&lt;li&gt;&lt;b&gt;Node.js&lt;/b&gt;&lt;/li&gt;&lt;li&gt;&lt;b&gt;Express.js&lt;/b&gt;&lt;/li&gt;&lt;ul&gt;&lt;li&gt;&lt;b&gt;express-validator&lt;br&gt;&lt;/b&gt;&lt;/li&gt;&lt;/ul&gt;&lt;li&gt;&lt;b&gt;Mongoose.js&lt;/b&gt;&lt;/li&gt;&lt;li&gt;&lt;b&gt;jsonwebtoken (?)&lt;/b&gt;&lt;/li&gt;&lt;li&gt;&lt;b&gt;Cors&lt;/b&gt;&lt;/li&gt;&lt;li&gt;&lt;b&gt;Dotenv&lt;br&gt;&lt;/b&gt;&lt;/li&gt;&lt;/ul&gt;&lt;div&gt;&lt;br&gt;&lt;/div&gt;&lt;div&gt;&lt;h1&gt;Dependencias Desarrollo&lt;/h1&gt;&lt;div&gt;&lt;ul&gt;&lt;li&gt;&lt;b&gt;Nodemon&lt;/b&gt;&lt;/li&gt;&lt;li&gt;&lt;b&gt;Concurently&lt;br&gt;&lt;/b&gt;&lt;/li&gt;&lt;/ul&gt;&lt;/div&gt;&lt;/div&gt;" style="text;html=1;strokeColor=none;fillColor=none;spacing=5;spacingTop=-20;whiteSpace=wrap;overflow=hidden;rounded=0;fontFamily=Lucida Console;" vertex="1" parent="1">
          <mxGeometry x="1360" y="-309.37" width="370" height="347.5" as="geometry" />
        </mxCell>
        <mxCell id="EfOndb0SQZfeAL7E1h73-89" value="" style="ellipse;shape=cloud;whiteSpace=wrap;html=1;fontFamily=Lucida Console;" vertex="1" parent="1">
          <mxGeometry x="590" y="580" width="180" height="150" as="geometry" />
        </mxCell>
        <mxCell id="EfOndb0SQZfeAL7E1h73-90" value="" style="shape=datastore;whiteSpace=wrap;html=1;fontSize=30;fillColor=#ffe6cc;strokeColor=#d79b00;fontFamily=Lucida Console;" vertex="1" parent="1">
          <mxGeometry x="650" y="625" width="60" height="60" as="geometry" />
        </mxCell>
        <mxCell id="EfOndb0SQZfeAL7E1h73-91" value="Imagenes" style="text;html=1;strokeColor=none;fillColor=none;align=center;verticalAlign=middle;whiteSpace=wrap;rounded=0;fontFamily=Lucida Console;" vertex="1" parent="1">
          <mxGeometry x="620" y="675" width="120" height="30" as="geometry" />
        </mxCell>
      </root>
    </mxGraphModel>
  </diagram>
</mxfile>
